<?xml version="1.0" encoding="UTF-8" standalone="no"?>
<!-- Created with Inkscape (http://www.inkscape.org/) -->

<svg
   xmlns:svg="http://www.w3.org/2000/svg"
   xmlns="http://www.w3.org/2000/svg"
   version="1.1"
   width="525"
   height="525"
   id="svg2912">
  <defs
     id="defs2914" />
  <g
     transform="translate(0,-527.36218)"
     id="layer1">
    <text
       x="388.82068"
       y="733.73627"
       id="text9426"
       xml:space="preserve"
       style="font-size:28px;font-style:normal;font-variant:normal;font-weight:normal;font-stretch:normal;text-indent:0;text-align:start;text-decoration:none;line-height:100%;letter-spacing:normal;word-spacing:normal;text-transform:none;direction:ltr;block-progression:tb;writing-mode:lr-tb;text-anchor:start;color:#000000;fill:#b64eb6;fill-opacity:1;fill-rule:nonzero;stroke:none;stroke-width:1px;marker:none;visibility:visible;display:inline;overflow:visible;font-family:Bitstream Charter"><tspan
         x="388.82068"
         y="733.73627"
         id="tspan9428" /></text>
    <path
       d="M 119.64535,638.08425 A 277.35378,148.13212 0 0 1 238.18052,927.44237"
       id="path4871"
       style="color:#000000;fill:#d2d2d2;fill-opacity:1;fill-rule:nonzero;stroke:none;stroke-width:2.36126566;marker:none;visibility:visible;display:inline;overflow:visible" />
    <g
       transform="translate(-1.2573101e-6,527.36218)"
       id="g2854">
      <path
         d="m 683.9256,221.32869 a 305.07468,139.57666 0 1 1 -610.149355,0 305.07468,139.57666 0 1 1 610.149355,0 z"
         transform="matrix(0.731826,-0.758196,0.758196,0.731826,-313.2904,419.3984)"
         id="path1353"
         style="opacity:0.706;color:#000000;fill:#f0f0a0;fill-opacity:1;fill-rule:nonzero;stroke:#000000;stroke-width:1.89794803;stroke-linecap:round;stroke-linejoin:round;stroke-miterlimit:4;stroke-opacity:1;stroke-dasharray:none;stroke-dashoffset:0;marker:none;visibility:visible;display:inline;overflow:visible" />
      <path
         d="m 385.7779,141.4202 -13.42973,-0.027 6.79673,-13.24514 6.633,13.27217 z"
         id="path1362"
         style="opacity:0.706;fill:#000000;fill-opacity:1;stroke:#000000;stroke-width:0.14669669;stroke-linecap:round;stroke-linejoin:round;stroke-miterlimit:4;stroke-opacity:1;stroke-dasharray:none;stroke-dashoffset:0" />
    </g>
    <path
       d="M 238.18098,925.98147 A 281.55613,147.60683 0 1 1 117.55155,637.62115"
       id="path3121"
       style="color:#000000;fill:#d2d2d2;fill-opacity:1;fill-rule:nonzero;stroke:none;stroke-width:2.36126566;marker:none;visibility:visible;display:inline;overflow:visible" />
    <path
       d="m 185.01965,782.86604 a 6.71778,6.71778 0 0 1 -13.43556,0 6.71778,6.71778 0 1 1 13.43556,0 z"
       id="path1920"
       style="color:#000000;fill:#e1b457;fill-opacity:1;fill-rule:nonzero;stroke:#000000;stroke-width:0.30000001;stroke-linecap:round;stroke-linejoin:round;stroke-miterlimit:4;stroke-opacity:1;stroke-dasharray:none;stroke-dashoffset:0;marker:none;visibility:visible;display:inline;overflow:visible" />
    <path
       d="m 174.15166,801.44339 -0.51591,-8.63899 11.47447,3.6727 -10.95856,4.96629 z"
       id="path9446"
       style="fill:#00b016;fill-opacity:1;stroke:#1d13b2;stroke-width:0.10840294;stroke-linecap:round;stroke-linejoin:round;stroke-miterlimit:4;stroke-opacity:1;stroke-dasharray:none;stroke-dashoffset:0" />
    <g
       transform="translate(-1.2573101e-6,527.36218)"
       id="g3864">
      <text
         x="283.70532"
         y="413.63339"
         id="text13835"
         xml:space="preserve"
         style="font-size:18.9678421px;font-style:normal;font-variant:normal;font-weight:normal;font-stretch:normal;text-indent:0;text-align:start;text-decoration:none;line-height:100%;letter-spacing:normal;word-spacing:normal;text-transform:none;direction:ltr;block-progression:tb;writing-mode:lr-tb;text-anchor:start;color:#000000;fill:#007d00;fill-opacity:1;fill-rule:nonzero;stroke:none;stroke-width:1px;marker:none;visibility:visible;display:inline;overflow:visible;font-family:Bitstream Charter"><tspan
           x="283.70532"
           y="413.63339"
           id="tspan13837">Inklination</tspan></text>
      <text
         x="273.45889"
         y="385.56311"
         id="text13839"
         xml:space="preserve"
         style="font-size:25.29045677px;font-style:italic;font-variant:normal;font-weight:normal;font-stretch:normal;text-indent:0;text-align:start;text-decoration:none;line-height:100%;letter-spacing:normal;word-spacing:normal;text-transform:none;direction:ltr;block-progression:tb;writing-mode:lr-tb;text-anchor:start;color:#000000;fill:#007d00;fill-opacity:1;fill-rule:nonzero;stroke:none;stroke-width:1px;marker:none;visibility:visible;display:inline;overflow:visible;font-family:Bitstream Charter"><tspan
           x="273.45889"
           y="385.56311"
           id="tspan13841">i</tspan></text>
      <g
         id="g3895">
        <path
           d="m 295.00469,388.94949 c 0,0 2.35824,-12.08648 -3.94525,-22.5923 -6.3035,-10.50583 -11.81348,-13.6512 -11.81348,-13.6512"
           id="path18261"
           style="fill:none;stroke:#007d00;stroke-width:2.10753798;stroke-linecap:round;stroke-linejoin:round;stroke-miterlimit:4;stroke-opacity:1;stroke-dasharray:none;stroke-dashoffset:0" />
        <path
           d="m 622.11308,395.79951 -107.52067,0.26457 53.53121,-93.24792 53.98946,92.98335 z"
           transform="matrix(0.05885576,-0.0549055,0.08230557,0.08822703,218.6997,353.8157)"
           id="path19136"
           style="fill:#007d00;fill-opacity:1;stroke:#1d13b2;stroke-width:1.10000002;stroke-linecap:round;stroke-linejoin:round;stroke-miterlimit:4;stroke-opacity:1;stroke-dasharray:none;stroke-dashoffset:0" />
      </g>
    </g>
    <text
       x="-152.36148"
       y="657.92603"
       transform="matrix(0.96162166,-0.2743789,0.2743789,0.96162166,0,0)"
       id="text19138"
       xml:space="preserve"
       style="font-size:18.96785355px;font-style:normal;font-variant:normal;font-weight:normal;font-stretch:normal;text-indent:0;text-align:start;text-decoration:none;line-height:100%;letter-spacing:normal;word-spacing:normal;text-transform:none;direction:ltr;block-progression:tb;writing-mode:lr-tb;text-anchor:start;color:#000000;fill:#000000;fill-opacity:1;fill-rule:nonzero;stroke:none;stroke-width:1px;marker:none;visibility:visible;display:inline;overflow:visible;font-family:Bitstream Charter"><tspan
         x="-152.36148"
         y="657.92603"
         id="tspan19140">Ekliptik</tspan></text>
    <text
       x="-514.49457"
       y="882.479"
       transform="matrix(0.8061488,-0.59171286,0.59171286,0.8061488,0,0)"
       id="text20015"
       xml:space="preserve"
       style="font-size:18.96785164px;font-style:normal;font-variant:normal;font-weight:normal;font-stretch:normal;text-indent:0;text-align:start;text-decoration:none;line-height:100%;letter-spacing:normal;word-spacing:normal;text-transform:none;direction:ltr;block-progression:tb;writing-mode:lr-tb;text-anchor:start;color:#000000;fill:#000000;fill-opacity:1;fill-rule:nonzero;stroke:none;stroke-width:1px;marker:none;visibility:visible;display:inline;overflow:visible;font-family:Bitstream Charter"><tspan
         x="-514.49457"
         y="882.479"
         id="tspan20017">Mondbahn</tspan></text>
    <g
       transform="translate(-1.2573101e-6,527.36218)"
       id="g2832">
      <g
         id="g2827">
        <path
           d="m 539.36409,459.60599 a 15.951617,15.951617 0 1 1 -31.90323,0 15.951617,15.951617 0 1 1 31.90323,0 z"
           transform="matrix(0.287498,0,0,0.287498,85.39152,313.0091)"
           id="path14730"
           style="color:#000000;fill:none;stroke:#d80000;stroke-width:5;stroke-linecap:round;stroke-linejoin:round;stroke-miterlimit:4;stroke-opacity:1;stroke-dasharray:none;stroke-dashoffset:0;marker:none;visibility:visible;display:inline;overflow:visible" />
        <path
           d="m 539.36409,459.60599 a 15.951617,15.951617 0 1 1 -31.90323,0 15.951617,15.951617 0 1 1 31.90323,0 z"
           transform="matrix(0.287498,0,0,0.287498,101.4427,313.0091)"
           id="path14734"
           style="color:#000000;fill:none;stroke:#d80000;stroke-width:5;stroke-linecap:round;stroke-linejoin:round;stroke-miterlimit:4;stroke-opacity:1;stroke-dasharray:none;stroke-dashoffset:0;marker:none;visibility:visible;display:inline;overflow:visible" />
        <path
           d="m 236.73128,440.27206 c 0,0 0.999,-0.97088 0.42574,-4.98369 -0.57326,-4.01279 -0.99901,-6.48145 0.14752,-10.78088 1.14651,-4.29942 4.29942,-4.87268 7.1657,-4.87268 2.86628,0 6.01919,2.0064 6.01919,5.15932 0,3.15291 -0.0281,9.06111 -0.60137,10.78088 -0.57325,1.71977 -0.54514,5.84356 -0.54514,5.84356"
           id="path14736"
           style="fill:none;stroke:#d80000;stroke-width:1.43748844;stroke-linecap:round;stroke-linejoin:round;stroke-miterlimit:4;stroke-opacity:1;stroke-dasharray:none;stroke-dashoffset:0" />
      </g>
      <text
         x="202.61407"
         y="479.08746"
         id="text27422"
         xml:space="preserve"
         style="font-size:18px;font-style:normal;font-variant:normal;font-weight:normal;font-stretch:normal;text-indent:0;text-align:start;text-decoration:none;line-height:100%;letter-spacing:normal;word-spacing:normal;text-transform:none;direction:ltr;block-progression:tb;writing-mode:lr-tb;text-anchor:start;color:#000000;fill:#d80000;fill-opacity:1;fill-rule:nonzero;stroke:none;stroke-width:1px;marker:none;visibility:visible;display:inline;overflow:visible;font-family:Bitstream Charter"><tspan
           x="202.61407"
           y="479.08746"
           id="tspan27424">Aufsteigender Knoten</tspan></text>
    </g>
    <g
       transform="translate(-1.2573101e-6,527.36218)"
       id="g3885">
      <path
         d="m 346.61301,234.15006 a 25.921379,13.957665 0 1 1 22.25316,-13.3438"
         transform="matrix(1.053769,0,0,1.053769,-184.8544,22.81671)"
         id="path9434"
         style="color:#000000;fill:none;stroke:#13b23a;stroke-width:2.36126566;stroke-linecap:round;stroke-linejoin:round;stroke-miterlimit:4;stroke-opacity:1;stroke-dasharray:none;stroke-dashoffset:0;marker:none;visibility:visible;display:inline;overflow:visible" />
    </g>
    <g
       transform="translate(73.742139,527.36218)"
       id="g2816">
      <rect
         width="48.989273"
         height="20.902308"
         ry="7.7008505"
         x="60.515282"
         y="216.27841"
         id="rect1927"
         style="opacity:0.60280379;fill:#000000;fill-opacity:1;stroke:#000000;stroke-width:0.10965513;stroke-miterlimit:4;stroke-opacity:1;stroke-dasharray:none" />
      <text
         x="65.820992"
         y="232.59363"
         id="text1923"
         xml:space="preserve"
         style="font-size:18.96785355px;font-style:normal;font-variant:normal;font-weight:normal;font-stretch:normal;text-indent:0;text-align:start;text-decoration:none;line-height:100%;letter-spacing:normal;word-spacing:normal;text-transform:none;direction:ltr;block-progression:tb;writing-mode:lr-tb;text-anchor:start;color:#000000;fill:#d2e157;fill-opacity:1;fill-rule:nonzero;stroke:none;stroke-width:1.00000036px;marker:none;visibility:visible;display:inline;overflow:visible;font-family:Bitstream Charter"><tspan
           x="65.820992"
           y="232.59363"
           id="tspan1925">Erde</tspan></text>
    </g>
    <text
       x="297.72012"
       y="737.03198"
       id="text5587"
       xml:space="preserve"
       style="font-size:18.96785355px;font-style:normal;font-variant:normal;font-weight:normal;font-stretch:normal;text-indent:0;text-align:start;text-decoration:none;line-height:100%;letter-spacing:normal;word-spacing:normal;text-transform:none;direction:ltr;block-progression:tb;writing-mode:lr-tb;text-anchor:start;color:#000000;fill:#000000;fill-opacity:1;fill-rule:nonzero;stroke:none;stroke-width:1.00000036px;marker:none;visibility:visible;display:inline;overflow:visible;font-family:Bitstream Charter"><tspan
         x="297.72012"
         y="737.03198"
         id="tspan5589" /></text>
    <g
       transform="translate(-141.2822,179.51578)"
       id="g2840">
      <g
         transform="matrix(1,0,0,-1,0,869.3681)"
         id="g2842">
        <path
           d="m 539.36409,459.60599 c 0.004,8.81295 -7.13866,15.9596 -15.95162,15.9596 -8.81295,0 -15.95602,-7.14665 -15.95161,-15.9596 -0.004,-8.81295 7.13866,-15.9596 15.95161,-15.9596 8.81296,0 15.95603,7.14665 15.95162,15.9596 l 0,0 z"
           transform="matrix(0.287498,0,0,0.287498,85.39152,313.0091)"
           id="path2844"
           style="color:#000000;fill:none;stroke:#d80000;stroke-width:5;stroke-linecap:round;stroke-linejoin:round;stroke-miterlimit:4;stroke-opacity:1;stroke-dasharray:none;stroke-dashoffset:0;marker:none;visibility:visible;display:inline;overflow:visible" />
        <path
           d="m 539.36409,459.60599 c 0.004,8.81295 -7.13866,15.9596 -15.95162,15.9596 -8.81295,0 -15.95602,-7.14665 -15.95161,-15.9596 -0.004,-8.81295 7.13866,-15.9596 15.95161,-15.9596 8.81296,0 15.95603,7.14665 15.95162,15.9596 l 0,0 z"
           transform="matrix(0.287498,0,0,0.287498,101.4427,313.0091)"
           id="path2846"
           style="color:#000000;fill:none;stroke:#d80000;stroke-width:5;stroke-linecap:round;stroke-linejoin:round;stroke-miterlimit:4;stroke-opacity:1;stroke-dasharray:none;stroke-dashoffset:0;marker:none;visibility:visible;display:inline;overflow:visible" />
        <path
           d="m 236.73128,440.27206 c 0,0 0.999,-0.97088 0.42574,-4.98369 -0.57326,-4.01279 -0.99901,-6.48145 0.14752,-10.78088 1.14651,-4.29942 4.29942,-4.87268 7.1657,-4.87268 2.86628,0 6.01919,2.0064 6.01919,5.15932 0,3.15291 -0.0281,9.06111 -0.60137,10.78088 -0.57325,1.71977 -0.54514,5.84356 -0.54514,5.84356"
           id="path2848"
           style="fill:none;stroke:#d80000;stroke-width:1.43748844;stroke-linecap:round;stroke-linejoin:round;stroke-miterlimit:4;stroke-opacity:1;stroke-dasharray:none;stroke-dashoffset:0" />
      </g>
      <text
         x="158.7679"
         y="407.9592"
         id="text2850"
         xml:space="preserve"
         style="font-size:18px;font-style:normal;font-variant:normal;font-weight:normal;font-stretch:normal;text-indent:0;text-align:start;text-decoration:none;line-height:100%;letter-spacing:normal;word-spacing:normal;text-transform:none;direction:ltr;block-progression:tb;writing-mode:lr-tb;text-anchor:start;color:#000000;fill:#d80000;fill-opacity:1;fill-rule:nonzero;stroke:none;stroke-width:1px;marker:none;visibility:visible;display:inline;overflow:visible;font-family:Bitstream Charter"><tspan
           x="158.7679"
           y="407.9592"
           id="tspan2852">Absteigender Knoten</tspan></text>
    </g>
  </g>
</svg>
